<svg width="27" height="27" viewBox="0 0 27 27" fill="none" xmlns="http://www.w3.org/2000/svg">
<path d="M13.0513 25.1025C19.707 25.1025 25.1025 19.707 25.1025 13.0513C25.1025 6.39554 19.707 1 13.0513 1C6.39554 1 1 6.39554 1 13.0513C1 19.707 6.39554 25.1025 13.0513 25.1025Z" stroke="#F9FBFC" stroke-width="2"/>
<path d="M13.0511 24.1459C19.1786 24.1459 24.1459 19.1786 24.1459 13.0511C24.1459 6.92361 19.1786 1.95629 13.0511 1.95629C6.92361 1.95629 1.95629 6.92361 1.95629 13.0511C1.95629 19.1786 6.92361 24.1459 13.0511 24.1459Z" stroke="#F9FBFC" stroke-width="2"/>
<path d="M2.91342 19.3634L1.15356 25.5995L7.61917 23.8013L7.96346 21.8119L3.99976 22.7498L4.86457 19.1339L2.91342 19.3634Z" fill="#F9FBFC"/>
<path d="M8.25681 7.55447C7.86619 7.82552 7.53317 8.17134 7.27706 8.57192C7.02095 8.9725 6.84683 9.41989 6.76474 9.88821C6.57345 11.3803 7.49165 12.9106 7.49165 12.9106C8.42304 14.2963 9.52884 15.5564 10.7818 16.6599C11.8779 17.5272 13.1223 18.1883 14.4546 18.611C15.2317 18.9213 16.0818 19.001 16.9031 18.8406C17.631 18.6408 18.275 18.2114 18.7395 17.6163C18.8483 17.3456 18.9254 17.0631 18.9691 16.7746C19.0128 16.5215 19.0128 16.2627 18.9691 16.0095C18.9308 15.7417 16.1762 14.4792 15.9084 14.5557C15.6406 14.6322 15.411 15.1296 15.105 15.5504C14.7989 15.9712 14.6842 16.1625 14.3781 16.1625C14.072 16.1625 12.733 15.6269 11.4704 14.4792C10.7493 13.8539 10.1858 13.0675 9.82538 12.1837C9.82538 12.1837 10.0549 11.9159 10.361 11.495C10.5992 11.2341 10.7699 10.9189 10.8583 10.5768C10.8583 10.3856 9.78711 7.66924 9.5193 7.55447C9.10052 7.4956 8.67559 7.4956 8.25681 7.55447Z" fill="#F9FBFC"/>
</svg>
