<svg width="25" height="20" viewBox="0 0 25 20" fill="none" xmlns="http://www.w3.org/2000/svg">
<path fill-rule="evenodd" clip-rule="evenodd" d="M15.0378 3.01107C12.8883 3.90512 8.59231 5.75558 2.14987 8.56244C1.10372 8.97846 0.555703 9.38545 0.505814 9.78341C0.421501 10.456 1.26372 10.7208 2.41061 11.0814C2.56661 11.1305 2.72825 11.1813 2.89397 11.2352C4.02233 11.602 5.54017 12.0311 6.32924 12.0481C7.04499 12.0636 7.84386 11.7685 8.72584 11.1628C14.7452 7.0996 17.8524 5.04584 18.0475 5.00156C18.1851 4.97033 18.3759 4.93105 18.5051 5.04591C18.6343 5.16076 18.6216 5.37827 18.6079 5.43662C18.5245 5.79231 15.2184 8.86588 13.5076 10.4565C12.9742 10.9523 12.5959 11.3041 12.5185 11.3844C12.3453 11.5643 12.1687 11.7345 11.999 11.8981C10.9507 12.9087 10.1646 13.6665 12.0425 14.904C12.945 15.4987 13.6671 15.9905 14.3876 16.4811C15.1743 17.0169 15.9591 17.5513 16.9744 18.2169C17.2331 18.3864 17.4801 18.5626 17.7208 18.7341C18.6364 19.3869 19.459 19.9733 20.4753 19.8798C21.0658 19.8254 21.6758 19.2702 21.9856 17.6141C22.7177 13.7002 24.1567 5.22014 24.4893 1.7257C24.5185 1.41954 24.4818 1.02772 24.4524 0.855715C24.4229 0.683713 24.3614 0.438648 24.1379 0.257233C23.8731 0.0423849 23.4643 -0.00292222 23.2815 0.00014194C22.4503 0.0149406 21.175 0.458371 15.0378 3.01107Z" fill="#F9FBFC"/>
</svg>
